<svg width="92" height="92" viewBox="0 0 92 92" fill="none" xmlns="http://www.w3.org/2000/svg">
<rect width="92" height="92" rx="4.6" fill="#74AA9C"/>
<path d="M61.8272 32.4102L62.3443 31.6322L63.3427 33.2295L63.2032 31.6503L69.0217 40.9592L68.0435 40.7502L68.6503 41.721L68.162 42.2455L68.9155 42.4064L69.0635 43.3868L69.689 42.715L71.2781 53.2409C71.2936 53.3432 71.2528 53.446 71.1715 53.5099L65.5261 57.9449L65.4506 57.0902L64.8222 57.5839L64.0015 57.0219L64.1049 58.1929L63.7123 58.5661L64.1326 58.8539V60.1499L64.8514 59.4666V63.0506C64.8514 63.171 64.7763 63.2787 64.6633 63.3203L58.3517 65.6453L40.1986 25.813L40.2901 26.5524M61.8272 32.4102L61.6932 30.8932L61.1846 30.7801L61.611 30.1386L43.285 26.0629L45.4212 27.2743L41.7262 26.4526L41.7766 26.8601M61.8272 32.4102L57.7462 38.5502L62.4586 39.557L61.8272 32.4102ZM41.7766 26.8601L40.8375 26.3275L40.2901 26.5524M41.7766 26.8601L51.7532 32.5177M41.7766 26.8601L42.7888 35.0407M40.2901 26.5524L28.6096 31.3519L41.3317 34.9711L40.2901 26.5524ZM51.7532 32.5177L42.7888 35.0407M51.7532 32.5177L42.7888 35.0407M21.6542 38.5545L26.5452 32.4644L37.6429 40.6825L31.3402 48.8861L21.6542 38.5545ZM32.8532 49.2762L37.9398 42.6556V49.2762H32.8532ZM43.4897 54.8343L39.546 49.9501L42.4333 45.5248L43.4897 54.8343ZM44.9744 55.1691L43.8138 44.9413L49.2832 48.6863L44.9744 55.1691ZM45.5279 56.9333L50.0023 50.2012L50.9217 59.6771L45.5279 56.9333ZM52.1701 62.425L54.8555 65.372L51.5996 65.0483L52.1701 62.425ZM50.9434 61.3009L50.3241 64.1491L46.7747 59.1803L50.9434 61.3009ZM38.9532 51.5041L43.1359 56.6844L37.1122 57.5944L38.9532 51.5041ZM37.6904 50.7137L35.6851 57.3475L31.104 54.3484L31.9632 50.7137H37.6904ZM40.9632 36.3608L38.5188 39.5425L30.0173 33.2469L40.9632 36.3608ZM41.6422 37.8366L42.0547 41.9946L39.691 40.3762L41.6422 37.8366ZM39.3773 47.578V41.9035L41.9363 43.6558L39.3773 47.578ZM50.079 47.489L43.6046 43.0558L42.9906 36.8677L55.3793 39.5145L50.079 47.489ZM52.186 46.9158L56.2454 40.8084L57.356 45.4901L52.186 46.9158ZM51.6397 48.5576L58.1977 46.7491L62.6213 48.196L58.1402 53.0086L51.6397 48.5576ZM62.5909 41.0552L63.1021 46.8408L58.8217 45.4408L57.5246 39.9728L62.5909 41.0552ZM55.296 38.0268L45.1709 35.8636L53.2155 33.5995L55.296 38.0268Z" stroke="#F5F5F5" stroke-width="1.4375"/>
</svg>
